<?xml version="1.0" encoding="UTF-8" standalone="no"?>
<!-- Created with Inkscape (http://www.inkscape.org/) -->

<svg
   xmlns:dc="http://purl.org/dc/elements/1.1/"
   xmlns:cc="http://creativecommons.org/ns#"
   xmlns:rdf="http://www.w3.org/1999/02/22-rdf-syntax-ns#"
   xmlns:svg="http://www.w3.org/2000/svg"
   xmlns="http://www.w3.org/2000/svg"
   xmlns:sodipodi="http://sodipodi.sourceforge.net/DTD/sodipodi-0.dtd"
   xmlns:inkscape="http://www.inkscape.org/namespaces/inkscape"
   version="1.1"
   id="svg1525"
   width="500.04395"
   height="500.04395"
   viewBox="0 0 500.04395 500.04395"
   sodipodi:docname="failure.svg"
   inkscape:version="0.92.2 (5c3e80d, 2017-08-06)">
  <metadata
     id="metadata1531">
    <rdf:RDF>
      <cc:Work
         rdf:about="">
        <dc:format>image/svg+xml</dc:format>
        <dc:type
           rdf:resource="http://purl.org/dc/dcmitype/StillImage" />
        <dc:title />
      </cc:Work>
    </rdf:RDF>
  </metadata>
  <defs
     id="defs1529" />
  <sodipodi:namedview
     pagecolor="#ffffff"
     bordercolor="#666666"
     borderopacity="1"
     objecttolerance="10"
     gridtolerance="10"
     guidetolerance="10"
     inkscape:pageopacity="0"
     inkscape:pageshadow="2"
     inkscape:window-width="1533"
     inkscape:window-height="845"
     id="namedview1527"
     showgrid="false"
     inkscape:zoom="0.47195852"
     inkscape:cx="-82.634383"
     inkscape:cy="250.02197"
     inkscape:window-x="67"
     inkscape:window-y="27"
     inkscape:window-maximized="1"
     inkscape:current-layer="svg1525" />
  <g
     id="g2078"
     transform="translate(0,-4.6875001e-6)"
     style="stroke:none">
    <path
       style="fill:none;stroke-width:1.05494499;stroke:none"
       d="M 0,250.02198 V 0 H 250.02198 500.04395 V 250.02198 500.04395 H 250.02198 0 Z"
       id="path2082"
       inkscape:connector-curvature="0" />
    <path
       style="fill:#fb0303;stroke-width:12.455;stroke:#ff9200;stroke-opacity:1;stroke-miterlimit:4;stroke-dasharray:none"
       d="m 149.34676,439.87995 c -4.76719,-5.0965 -4.95063,-5.52512 -4.62788,-10.81319 0.32356,-5.30151 0.22958,-5.51861 -2.5266,-5.83643 -1.57448,-0.18155 -5.06063,0.64216 -7.74701,1.83048 -3.58538,1.58598 -5.40424,1.88233 -6.83931,1.11431 -3.87042,-2.0714 -18.93736,-23.76554 -18.94391,-27.27644 -10e-4,-0.79912 1.44864,-4.40106 3.22251,-8.00431 l 3.22522,-6.55136 -4.35256,-10.79564 c -4.26277,-10.57295 -4.31477,-10.85395 -2.521,-13.62206 5.81676,-8.97625 30.299,-39.02758 57.30703,-70.3429 17.01404,-19.72747 31.39213,-36.85869 31.95131,-38.06937 0.83229,-1.802 -0.45015,-4.86337 -7.07084,-16.87912 -21.4706,-38.96649 -47.04254,-96.59057 -54.37273,-122.52412 l -2.45383,-8.6814 3.86759,-5.560354 c 4.55412,-6.547374 15.72823,-18.747168 17.17101,-18.747168 0.55268,0 3.44694,2.136264 6.4317,4.747253 2.98474,2.610989 6.40741,4.747253 7.60591,4.747253 2.70767,0 5.00513,-3.442376 5.98463,-8.967033 1.20418,-6.791947 4.19022,-11.657785 8.37179,-13.642074 8.3073,-3.942069 12.44317,-0.292242 28.01084,24.718997 22.23728,35.726736 52.7679,80.919896 55.33042,81.903236 0.73738,0.28295 3.68447,-2.00753 6.54907,-5.08999 2.86459,-3.08245 14.66901,-15.80159 26.23203,-28.26476 37.5453,-40.46808 86.97503,-89.726457 95.91984,-95.587323 2.4158,-1.582894 2.82021,-1.550762 6.11561,0.485915 1.94082,1.199489 6.27697,5.062097 9.63588,8.583572 5.96673,6.255495 6.09134,6.508002 5.4201,10.984097 -0.66169,4.412527 -0.52856,4.706922 3.61171,7.986071 3.85887,3.056285 4.77406,3.333378 8.94412,2.708038 l 4.6454,-0.696621 5.34352,7.918768 c 2.93894,4.355323 5.34353,8.796715 5.34353,9.869762 0,1.073047 -1.42417,4.196687 -3.16483,6.941421 -1.74066,2.74474 -3.16484,5.96264 -3.16484,7.15091 0,1.37178 -6.64312,8.98072 -18.1978,20.84349 -30.42667,31.23796 -61.84614,66.31846 -89.32629,99.73468 -7.11691,8.65426 -13.17181,16.33953 -13.45534,17.07839 -1.00722,2.62477 64.83417,86.71844 77.09776,98.47048 4.49427,4.3068 4.75398,6.90573 1.54671,15.47794 -2.36563,6.3227 -7.07244,11.67579 -19.70185,22.40708 -5.99031,5.09 -6.58625,5.95266 -5.98944,8.66996 0.52857,2.40655 -0.0354,3.88634 -2.78526,7.30816 -3.10717,3.86646 -11.74748,10.54529 -13.6423,10.54529 -0.41328,0 -3.87136,-2.13626 -7.6846,-4.74725 -3.81324,-2.61099 -7.32391,-4.74725 -7.80148,-4.74725 -0.47757,0 -3.94031,3.12098 -7.69498,6.93552 -9.07752,9.22227 -14.62302,12.54165 -18.21695,10.90415 -5.44127,-2.47921 -23.27233,-24.88645 -43.99844,-55.29022 -14.17159,-20.78874 -19.82424,-28.22439 -21.0904,-27.74287 -1.35625,0.51578 -43.75098,56.5644 -63.33026,83.72675 -21.90129,30.3837 -21.56547,29.99414 -25.85651,29.99414 -2.67844,0 -4.37576,-1.08158 -8.328,-5.30686 z"
       id="path2080"
       inkscape:connector-curvature="0" />
  </g>
</svg>
