<?xml version="1.0" encoding="UTF-8" standalone="no"?>
<!-- Created with Inkscape (http://www.inkscape.org/) -->

<svg
   xmlns:dc="http://purl.org/dc/elements/1.1/"
   xmlns:cc="http://creativecommons.org/ns#"
   xmlns:rdf="http://www.w3.org/1999/02/22-rdf-syntax-ns#"
   xmlns:svg="http://www.w3.org/2000/svg"
   xmlns="http://www.w3.org/2000/svg"
   xmlns:sodipodi="http://sodipodi.sourceforge.net/DTD/sodipodi-0.dtd"
   xmlns:inkscape="http://www.inkscape.org/namespaces/inkscape"
   version="1.1"
   id="svg2"
   width="346.66666"
   height="346.66666"
   viewBox="0 0 346.66666 346.66666"
   sodipodi:docname="rock.svg"
   inkscape:version="0.92.2 (5c3e80d, 2017-08-06)">
  <metadata
     id="metadata8">
    <rdf:RDF>
      <cc:Work
         rdf:about="">
        <dc:format>image/svg+xml</dc:format>
        <dc:type
           rdf:resource="http://purl.org/dc/dcmitype/StillImage" />
        <dc:title></dc:title>
      </cc:Work>
    </rdf:RDF>
  </metadata>
  <defs
     id="defs6" />
  <sodipodi:namedview
     pagecolor="#ffffff"
     bordercolor="#666666"
     borderopacity="1"
     objecttolerance="10"
     gridtolerance="10"
     guidetolerance="10"
     inkscape:pageopacity="0"
     inkscape:pageshadow="2"
     inkscape:window-width="1533"
     inkscape:window-height="845"
     id="namedview4"
     showgrid="false"
     inkscape:zoom="1.3615385"
     inkscape:cx="136.33095"
     inkscape:cy="202.57625"
     inkscape:window-x="67"
     inkscape:window-y="27"
     inkscape:window-maximized="1"
     inkscape:current-layer="svg2" />
  <g
     id="g817"
     transform="translate(0,-3.5058594e-6)">
    <path
       style="fill:none;stroke-width:1.33333325"
       d="M 0,173.33333 V 0 H 173.33333 346.66666 V 173.33333 346.66666 H 173.33333 0 Z"
       id="path829"
       inkscape:connector-curvature="0" />
    <path
       style="fill:#e72608;stroke-width:1.33333325"
       d="M 85.999998,290.08069 C 75.157661,287.53705 49.920271,279.01697 43.345983,275.68079 32.070105,269.95878 17.60076,259.8333 16.906604,257.17885 c -1.153612,-4.41141 0.813985,-15.18492 9.955721,-54.51219 1.448957,-6.23333 4.431209,-17.03333 6.627228,-24 13.347245,-42.3429 14.676866,-45.33736 25.083902,-56.49181 7.060812,-7.5679 36.484673,-32.054172 50.093205,-41.68711 15.8821,-11.242296 42.10828,-25.588776 50.84403,-27.813152 7.47435,-1.903184 8.73525,-1.895332 14.66667,0.09133 18.64574,6.245192 27.39501,13.266379 54.4009,43.656135 8.83458,9.941547 10.07746,10.804197 28,19.434117 10.31529,4.96693 23.88053,12.35442 30.145,16.41665 13.77237,8.93075 15.37136,11.55426 29.08904,47.72718 5.14481,13.56666 11.75591,30.47993 14.69129,37.58502 13.14446,31.81602 16.11236,44.96759 11.15935,49.45002 -4.1116,3.72094 -21.98685,10.01325 -32.99628,11.61509 -5.86667,0.85357 -15.46667,2.37907 -21.33333,3.38997 -5.86667,1.01092 -21.16667,2.2219 -34,2.69108 -13.01551,0.47584 -27.16567,1.75087 -32,2.88343 -6.80471,1.59419 -19.26548,2.08936 -58,2.30485 C 136.2,290.07041 109.5,290.59073 104,291.07572 c -6.794693,0.59916 -12.564248,0.28021 -18.000002,-0.99503 z"
       id="path827"
       inkscape:connector-curvature="0" />
    <path
       style="fill:#cf1203;stroke-width:1.33333325"
       d="M 85.999998,289.99593 C 75.551379,287.65535 50.15094,279.13298 43.345983,275.68462 c -2.94029,-1.48997 -9.995984,-5.72844 -15.679317,-9.41883 l -10.333333,-6.70977 0.0033,-7.44468 c 0.0019,-4.09457 1.50185,-13.03797 3.333334,-19.87422 1.831513,-6.83626 3.33,-13.94046 3.33,-15.7871 0,-3.83112 7.570046,-33.15529 9.480645,-36.72528 0.694176,-1.29708 2.4142,-6.71577 3.822276,-12.04153 9.044375,-34.20856 13.063361,-40.02548 46.697077,-67.58748 23.269885,-19.06909 35.062675,-27.412886 42.406275,-30.003858 2.75821,-0.973152 8.52657,-4.229283 12.81858,-7.235845 8.40848,-5.890168 20.12568,-10.856028 25.61533,-10.856028 4.61726,0 22.58784,6.409913 29.15982,10.400986 7.00526,4.254208 14.9113,11.850078 25.95042,24.932347 14.98655,17.760278 18.29004,20.351458 36.62366,28.726598 9.31394,4.25479 20.04502,9.78952 23.84685,12.2994 3.80181,2.50987 9.34026,6.08348 12.30765,7.94133 6.33679,3.96744 11.24971,12.5263 18.5786,32.366 5.13563,13.90246 13.72369,35.73527 20.61969,52.41991 11.68903,28.28125 14.51596,41.62272 9.73607,45.94846 -4.11695,3.72579 -21.99385,10.01451 -32.99628,11.60742 -5.86667,0.84936 -15.76667,2.39376 -22,3.43201 -6.23333,1.03824 -21.83333,2.25437 -34.66666,2.70251 -16.1659,0.56449 -26.81466,1.63325 -34.66667,3.47932 -9.36083,2.20078 -13.71055,2.50416 -24.99197,1.74302 -19.3645,-1.30646 -50.77844,-1.0654 -75.6747,0.5807 -11.73333,0.7758 -21.633331,1.36496 -21.999998,1.30926 -0.366667,-0.0557 -4.266667,-0.9077 -8.666667,-1.89334 z m -0.416764,-22.46288 c 0.824335,-1.54028 1.855334,-6.06687 2.291111,-10.05909 0.939904,-8.61062 3.118419,-9.97092 6.233481,-3.89234 4.750699,9.27029 6.414394,8.79773 21.348774,-6.06402 13.2853,-13.22068 13.39533,-13.44823 12.66254,-26.18427 -0.39737,-6.90615 -3.8405,-18.19072 -8.16303,-26.7536 -2.09886,-4.15783 -5.26722,-13.27436 -7.04081,-20.25897 -5.88265,-23.1667 -10.24501,-27.88522 -18.581924,-20.09902 -7.273515,6.79304 -30.852919,37.22822 -37.453416,48.34308 -5.953213,10.02488 -16.62987,34.60571 -18.676913,42.99979 -1.142269,4.68397 4.040151,10.993 10.840587,13.19721 2.726001,0.88358 9.156365,3.71152 14.289698,6.28432 14.794253,7.41481 19.340613,7.92296 22.249902,2.48691 z M 47.030431,195.14462 c 25.55614,-35.46457 31.66235,-42.91157 40.647023,-49.57218 11.950321,-8.85914 13.142556,-10.38459 14.143636,-18.09668 0.66612,-5.13162 2.89275,-9.54299 10.43147,-20.66667 5.27151,-7.778333 13.07121,-18.667202 17.33267,-24.197486 13.99341,-18.159876 10.12214,-17.826252 -16.96228,1.461802 -32.372056,23.053614 -51.971258,40.274624 -57.027207,50.107444 -4.466164,8.68581 -20.929077,63.72071 -20.929077,69.96512 0,5.28143 4.357595,2.10892 12.363765,-9.00135 z"
       id="path825"
       inkscape:connector-curvature="0" />
    <path
       style="fill:#b01207;stroke-width:1.33333325"
       d="M 85.999998,289.99593 C 75.551379,287.65535 50.15094,279.13298 43.345983,275.68462 c -2.94029,-1.48997 -9.995984,-5.72844 -15.679317,-9.41883 l -10.333333,-6.70977 0.0033,-7.44468 c 0.0019,-4.09457 1.50185,-13.03797 3.333334,-19.87422 1.831513,-6.83626 3.33,-13.94046 3.33,-15.7871 0,-3.83112 7.570046,-33.15529 9.480645,-36.72528 0.694176,-1.29708 2.4142,-6.71577 3.822276,-12.04153 6.378403,-24.12505 11.280214,-34.43413 21.951913,-46.16743 C 64.645599,115.58875 102.41302,84.682401 113.029,77.510576 120.26408,72.622781 132,67.122587 132,68.619563 c 0,0.2757 -8.55,6.660693 -19,14.188871 -35.009987,25.221196 -53.713161,41.564796 -58.670757,51.268906 -3.861644,7.55888 -22.249453,68.49832 -24.787105,82.1475 -1.092531,5.87636 -0.948995,6.37886 2.563907,8.97606 l 3.721229,2.75123 7.617324,-14.97607 c 13.639108,-26.81521 28.515739,-46.70325 49.086076,-65.62142 9.421796,-8.66507 12.739456,-12.5997 13.344796,-15.82646 1.2751,-6.79685 14.62874,-32.827647 21.59307,-42.092255 7.61279,-10.127245 14.92719,-17.435926 17.44956,-17.435926 2.586,0 0.41478,3.881425 -8.20433,14.666666 -9.66979,12.099958 -11.9734,16.305085 -16.76202,30.598155 -4.53696,13.54192 -4.52975,17.88471 0.0393,23.69336 1.47464,1.87471 3.54097,6.17604 4.59183,9.55852 3.02626,9.7408 11.21186,31.84634 14.30262,38.62479 1.5528,3.40552 3.88913,8.67575 5.19185,11.71161 1.30272,3.03588 2.89248,5.84358 3.5328,6.23932 3.33544,2.06142 20.40737,-12.33112 34.20144,-28.83358 8.08236,-9.66931 15.17246,-14.46103 21.78648,-14.72399 4.76818,-0.18957 5.05137,-0.43856 4.77873,-4.20152 -0.1594,-2.2 -2.05279,-8.8 -4.20752,-14.66667 C 202.01458,138.8 198.30876,128.6 195.93416,122 190.34942,106.47773 175.94424,77.615521 169.27801,68.591776 164.19754,61.714613 160.07354,58.973118 157.34526,60.659291 156.60537,61.116572 156,60.8553 156,60.078688 c 0,-2.402648 -3.74336,-1.579958 -12.17295,2.675279 -4.45329,2.248016 -8.359,3.825202 -8.67933,3.504858 -0.98164,-0.981638 12.36694,-8.997279 19.49161,-11.704439 8.83479,-3.356954 11.66767,-3.234839 23.81751,1.026674 17.2273,6.042415 24.4863,11.597245 41.49358,31.752272 14.98655,17.760278 18.29004,20.351458 36.62366,28.726598 9.31394,4.25479 20.04502,9.78952 23.84685,12.2994 3.80181,2.50987 9.34026,6.08348 12.30765,7.94133 6.33679,3.96744 11.24971,12.5263 18.5786,32.366 5.13563,13.90246 13.72369,35.73527 20.61969,52.41991 11.68903,28.28125 14.51596,41.62272 9.73607,45.94846 -4.11695,3.72579 -21.99385,10.01451 -32.99628,11.60742 -5.86667,0.84936 -15.76667,2.39376 -22,3.43201 -6.23333,1.03824 -21.83333,2.25437 -34.66666,2.70251 -16.1659,0.56449 -26.81466,1.63325 -34.66667,3.47932 -9.36083,2.20078 -13.71055,2.50416 -24.99197,1.74302 -19.3645,-1.30646 -50.77844,-1.0654 -75.6747,0.5807 -11.73333,0.7758 -21.633328,1.36496 -21.999995,1.30926 -0.366667,-0.0557 -4.266667,-0.9077 -8.666667,-1.89334 z m -1.884457,-18.37167 c 3.402251,-2.61217 5.217791,-7.06291 5.217791,-12.79125 0,-7.16413 2.061597,-8.01096 5.463964,-2.24437 4.391695,7.44337 7.124834,6.48383 21.615694,-7.58864 10.02941,-9.73986 13.06023,-13.56602 14.41307,-18.19532 0.983,-3.36372 2.6726,-6.11291 3.96452,-6.45076 2.06619,-0.54031 2.09615,-1.26487 0.36407,-8.80468 -1.03807,-4.51875 -3.1473,-12.11591 -4.68719,-16.88258 C 126.62521,186.77314 109.33397,143.64222 107.74972,142 c -1.70925,-1.77182 -24.042262,21.3761 -36.696743,38.03577 -12.350195,16.25908 -20.097147,29.93641 -27.658346,48.83113 -7.42879,18.56386 -7.71262,23.09359 -1.727965,27.57715 2.383333,1.78555 5.804282,3.69489 7.602109,4.24301 1.797825,0.54812 8.654277,3.61776 15.23656,6.82143 12.484549,6.07636 16.075101,6.82993 19.610206,4.11577 z"
       id="path823"
       inkscape:connector-curvature="0" />
    <path
       style="fill:#8d0a04;stroke-width:1.33333325"
       d="m 87.333332,289.77373 c -1.466667,-0.31299 -11.108064,-3.24074 -21.425327,-6.50614 -18.448275,-5.83884 -37.274759,-15.33453 -45.480671,-22.9395 -5.234234,-4.85093 -2.218776,-5.88037 4.31272,-1.47232 12.147329,8.19813 59.580319,27.81089 67.259976,27.81089 2.074462,0 2.234283,-0.65249 1.224696,-5 -0.63861,-2.75 -1.157178,-8.9 -1.152374,-13.66667 0.01027,-10.23422 1.196341,-9.01099 5.171445,5.33366 1.4991,5.40968 3.327323,10.43748 4.062733,11.17288 0.8939,0.89389 6.31278,0.54618 16.34861,-1.04907 17.05784,-2.71143 26.81192,-5.44833 29.69603,-8.33245 2.23672,-2.23671 2.80184,-16.42388 0.73792,-18.52501 -0.68432,-0.69667 -3.41203,-9.96667 -6.06155,-20.6 -7.14181,-28.6622 -10.63878,-39.57386 -20.90769,-65.23863 C 110.18505,143.43236 108.51661,140 106.16706,140 c -2.25277,0 -25.27713,25.68253 -36.998241,41.2697 -11.156613,14.83648 -18.739691,27.73159 -25.483993,43.33582 -6.153087,14.23633 -8.395241,17.14884 -7.232208,9.39448 0.439955,-2.93334 5.007971,-13.73334 10.151144,-24 11.849713,-23.65408 26.022267,-42.708 44.480568,-59.80074 12.04378,-11.15277 14.27247,-13.88778 16.21437,-19.89798 4.78194,-14.80017 21.59841,-43.33327 30.04363,-50.976095 5.09667,-4.612422 2.59712,0.414317 -5.81993,11.704199 -8.61109,11.550156 -17.84735,30.741136 -19.13313,39.754566 -0.51806,3.63167 0.51286,7.48545 4.28016,15.99999 2.72942,6.16883 9.72126,23.51606 15.53743,38.54939 5.81616,15.03333 11.68418,28.23333 13.04004,29.33333 3.00204,2.43554 6.10608,8.48723 7.37504,14.37851 1.26742,5.88409 4.95011,7.98589 18.0183,10.28352 13.76377,2.41991 18.0319,5.50431 24.40853,17.63907 8.94941,17.03075 13.29221,17.91429 18.09412,3.68123 3.63777,-10.7825 4.11632,-21.50893 2.30045,-51.5637 -0.88702,-14.68133 -0.74669,-22.13252 0.56079,-29.77616 l 1.74388,-10.19479 4.79265,0.8748 c 2.63598,0.48114 6.22467,1.79796 7.9749,2.9263 3.13348,2.02008 3.16784,1.99302 2.24282,-1.76531 -0.51666,-2.09924 -8.63469,-20.0168 -18.04005,-39.8168 -16.75944,-35.281687 -26.43948,-59.995549 -24.98448,-63.787233 0.4024,-1.048644 -0.15529,-3.172896 -1.23932,-4.720561 -1.88781,-2.695245 -1.83007,-2.760372 1.36911,-1.544049 7.01049,2.665385 13.97532,8.130492 21.57549,16.929698 23.66952,27.403685 26.43695,30.110485 34.56087,33.803735 21.50401,9.77605 29.72123,13.96543 33.99999,17.33423 2.56667,2.02081 6.83758,4.58029 9.49091,5.68771 8.17663,3.41272 13.93167,13.02846 23.03312,38.48456 2.45384,6.86322 9.08869,23.87858 14.74411,37.81191 16.7527,41.27388 18.88481,50.49813 12.90001,55.81006 -5.87064,5.21062 -25.91873,11.10838 -41.84029,12.30859 -3.48635,0.26281 -9.78635,1.36877 -14,2.45768 -4.9574,1.28112 -17.0724,2.20709 -34.32785,2.62376 -19.02663,0.45943 -28.29018,1.22232 -32.33331,2.66276 -3.25457,1.15949 -9.78136,1.96864 -15.33333,1.90091 -36.80432,-0.44896 -65.11612,-0.31632 -87.00003,0.40762 -13.93333,0.46094 -26.533332,0.58199 -27.999998,0.26902 z M 290.99999,157.96577 c 3.42439,-1.34688 2.94896,-8.44077 -0.95026,-14.17899 -3.50728,-5.16144 -14.54166,-12.08318 -31.38307,-19.68625 -23.77032,-10.73114 -33.16273,-16.05577 -36.57322,-20.73365 -1.88472,-2.58512 -4.98736,-6.839623 -6.89476,-9.454454 -1.90739,-2.614832 -3.80191,-4.420314 -4.21004,-4.012184 -1.38467,1.384667 9.35286,20.065088 15.38538,26.766418 3.30071,3.66667 7.56686,9.06667 9.48031,12 11.63768,17.84063 15.85304,22.29991 25.88898,27.38706 7.54167,3.82281 9.06494,4.12656 17.59002,3.50753 5.13333,-0.37276 10.38333,-1.09072 11.66666,-1.59548 z M 18.76038,246.41202 c 0.05154,-1.69328 0.609372,-4.27869 1.23962,-5.74536 0.923521,-2.14914 1.164093,-1.71158 1.23962,2.25464 0.05154,2.70672 -0.506287,5.29214 -1.23962,5.74536 -0.74956,0.46326 -1.292303,-0.52389 -1.23962,-2.25464 z m 6.572953,-32.89482 c 0,-4.56522 1.03927,-8.51838 8.811566,-33.5172 9.974965,-32.08351 12.952195,-40.76444 15.037229,-43.84516 1.183163,-1.74818 3.651204,-5.39333 5.484538,-8.10034 3.354756,-4.95348 13.496149,-14.72117 15.284381,-14.72117 0.528649,0 -3.068304,4.35 -7.993228,9.66667 -9.957559,10.74961 -8.919,8.11168 -27.427954,69.66666 -7.080162,23.5464 -9.196532,28.34467 -9.196532,20.85054 z M 74.968252,108.56845 c 1.265873,-1.32535 2.667261,-2.04405 3.114196,-1.59711 0.446934,0.44693 -0.58878,1.5313 -2.301588,2.40972 -2.977141,1.52682 -3.012904,1.49106 -0.812608,-0.81261 z m 8.36508,-7.23512 c 0.453225,-0.73333 1.424045,-1.333332 2.157378,-1.333332 0.733334,0 0.962514,0.600002 0.509288,1.333332 -0.453225,0.73333 -1.424045,1.33333 -2.157378,1.33333 -0.733334,0 -0.962514,-0.6 -0.509288,-1.33333 z m 11.989177,-9.170197 c 6.100081,-6.421311 26.746171,-20.584684 28.940351,-19.853292 1.24972,0.416575 -13.0586,11.207303 -29.596195,22.320196 l -4.666667,3.135894 z M 165.08333,53.755847 c 0.96249,-0.385161 2.11249,-0.337792 2.55556,0.105267 0.44305,0.443056 -0.34445,0.758188 -1.75,0.700293 -1.55327,-0.06397 -1.8692,-0.379921 -0.80556,-0.805556 z"
       id="path821"
       inkscape:connector-curvature="0" />
    <path
       style="fill:#620b07;stroke-width:1.33333325"
       d="m 93.857346,288.55761 c 0.445126,-1.15998 0.837384,-5.20998 0.871684,-9 l 0.06236,-6.89095 2.504437,6.40972 c 1.377442,3.52535 3.144173,7.18056 3.926063,8.12268 1.91026,2.30172 0.48015,3.4676 -4.253439,3.4676 -3.027129,0 -3.736019,-0.48056 -3.111111,-2.10905 z M 75.999999,286.6715 c -3.3,-1.3178 -10.5,-3.73224 -16,-5.3654 -5.5,-1.63316 -12.4,-4.18252 -15.333333,-5.66525 -11.980964,-6.05612 -29.08635,-18.30752 -25.56092,-18.30752 0.241495,0 5.176966,2.7 10.967713,6 5.790748,3.3 10.989399,6 11.552556,6 0.563158,0 7.177687,2.78604 14.698953,6.19121 7.521267,3.40516 18.775031,7.86935 25.008364,9.92041 10.056578,3.3091 10.732508,3.7232 6,3.67588 -2.933334,-0.0293 -8.033334,-1.13152 -11.333333,-2.44933 z m 38.684491,1.37335 c 1.10981,-0.63666 8.60981,-1.54363 16.66667,-2.0155 12.62657,-0.73949 14.33437,-0.60197 12.37088,0.99619 -1.59952,1.30191 -6.56334,1.90219 -16.66667,2.01549 -8.71576,0.0977 -13.59315,-0.295 -12.37088,-0.99618 z m 76.76915,0.14981 c -0.38706,-0.62627 4.52753,-1.54232 10.92132,-2.03567 6.39377,-0.49336 13.72504,-1.18416 16.2917,-1.53513 l 4.66667,-0.63813 L 218,286.56065 c -5.60522,2.70617 -25.14056,3.90864 -26.54636,1.63401 z m -42.78698,-1.528 c -1.66408,-0.71508 4.4768,-1.18113 16.33334,-1.23961 11.84025,-0.0584 19,0.40872 19,1.23961 0,1.64683 -31.50095,1.64683 -35.33334,0 z m 84.66667,-2.68705 c -5.8496,-1.20574 -5.91307,-1.17982 9.33333,-3.8122 l 12.66667,-2.18698 0.42391,-4.4052 c 0.23313,-2.42285 -0.26191,-7.21845 -1.1001,-10.65688 -0.8382,-3.43842 -2.95809,-14.05169 -4.71088,-23.58502 -3.57253,-19.43084 -12.04146,-58.86163 -14.17545,-66 -0.76729,-2.56667 -8.78936,-19.73083 -17.82681,-38.14259 -16.67647,-33.97453 -21.23076,-45.023932 -20.3684,-49.416878 0.30018,-1.52918 3.63325,3.53424 8.92572,13.559469 4.64565,8.799999 14.08757,25.954709 20.98202,38.121569 12.24824,21.61482 12.69552,22.19887 19.52603,25.49635 3.84484,1.85615 9.32075,4.1244 12.16867,5.0406 2.84791,0.91619 10.89714,3.99283 17.88715,6.83697 6.99003,2.84415 14.70819,5.17118 17.15147,5.17118 3.20415,0 5.88203,1.30069 9.60776,4.66666 2.84099,2.56667 5.90949,4.66667 6.81889,4.66667 5.59744,0 -11.01317,-38.67484 -21.49421,-50.04543 l -5.37753,-5.83393 4.32772,1.24117 c 2.38024,0.68264 5.78448,2.6055 7.56498,4.27302 3.91166,3.66342 12.3056,20.89197 16.41832,33.6985 1.64854,5.13334 4.477,12.63334 6.2855,16.66667 1.80849,4.03333 4.37892,10.33333 5.71205,14 1.33313,3.66667 4.89716,12.66667 7.92005,20 11.01018,26.70988 13.26648,37.66442 8.88566,43.14062 -3.61826,4.52296 -35.4604,14.50099 -40.3222,12.63535 -0.85991,-0.32997 -6.88851,0.59127 -13.3969,2.04721 -12.61638,2.82231 -45.47689,4.54556 -53.83342,2.8231 z m 55.55858,-19.97738 c 9.40944,-1.45236 17.55808,-2.64701 18.10808,-2.65478 2.00616,-0.0284 0.92191,-3.28465 -2.2002,-6.60783 -1.76012,-1.87346 -5.72409,-8.20629 -8.80884,-14.07296 -3.08474,-5.86666 -6.46616,-11.63766 -7.51424,-12.82445 -1.04809,-1.18677 -4.0051,-5.64435 -6.57117,-9.90571 -4.05901,-6.74065 -4.41615,-7.99733 -2.74711,-9.66637 1.66904,-1.66904 2.84515,-1.4816 9.04667,1.44175 12.45673,5.872 17.32396,6.6619 23.88351,3.87606 l 5.72762,-2.43253 -3.65378,-2.57771 c -2.00959,-1.41773 -6.5093,-4.75554 -9.99936,-7.41734 -3.49006,-2.6618 -10.50451,-7.19115 -15.58767,-10.06522 -12.09932,-6.84109 -40.43273,-20.42848 -42.59894,-20.42848 -1.85759,0 -0.89998,6.51632 1.67009,11.36471 0.76832,1.44941 2.42497,7.73529 3.68147,13.96863 1.25648,6.23333 3.16017,13.43333 4.23041,16 1.07023,2.56666 2.49299,10.96666 3.16167,18.66666 0.66868,7.7 1.58497,15.5 2.03621,17.33334 1.43504,5.83038 8.71993,20.06903 9.89601,19.34218 0.62231,-0.38461 8.83012,-1.88759 18.23957,-3.33995 z M 145.39817,243.66666 c -9.92407,-37.72165 -13.32851,-48.46926 -23.26046,-73.43181 -6.07587,-15.27083 -12.07439,-28.965 -13.33005,-30.43149 -1.98323,-2.31626 -2.06351,-3.31002 -0.61138,-7.5682 l 1.67162,-4.90183 0.93248,6.17229 c 0.51287,3.39478 3.74756,12.63734 7.1882,20.53904 15.917,36.55466 32.6649,86.25052 32.67472,96.95534 0.007,6.95729 -2.37984,3.63374 -5.26513,-7.33334 z m -98.731504,-30.8221 c 0,-4.50583 17.545038,-32.15491 28.816126,-45.4111 9.622418,-11.31716 14.187241,-13.55838 5.36372,-2.63348 -12.000871,14.85898 -21.373984,27.88163 -27.254732,37.86668 -6.314193,10.72102 -6.925114,11.6189 -6.925114,10.1779 z M 25.950294,209 c 0.510387,-1.65 2.076501,-7.6589 3.480255,-13.35311 1.403752,-5.69421 4.056141,-13.92613 5.894197,-18.29316 1.838056,-4.36703 3.34192,-9.29657 3.34192,-10.95453 0,-4.18304 7.99359,-26.62454 10.353173,-29.06587 1.701724,-1.76069 1.825415,-1.60115 1.033711,1.33333 -0.878387,3.25578 -9.154493,30.00338 -16.708411,54 -2.077618,6.6 -4.141641,13.65 -4.586717,15.66667 C 28.313346,210.35 27.290646,212 26.485755,212 c -0.903707,0 -1.108509,-1.14743 -0.535461,-3 z M 265.7231,124.95731 c -8.95229,-4.55985 -20.4656,-10.25997 -25.58513,-12.66691 -7.91369,-3.72063 -10.91377,-6.2176 -20.02475,-16.666671 -5.89406,-6.759719 -14.426,-16.345151 -18.95985,-21.300961 -4.53384,-4.955811 -7.87637,-9.377548 -7.42784,-9.826083 1.73032,-1.730314 9.83299,4.661591 18.00697,14.205063 26.71354,31.189142 27.16494,31.546342 54.00771,42.737812 6.30872,2.63028 19.39274,11.74818 16.92645,11.79558 -0.36667,0.007 -7.99127,-3.71798 -16.94356,-8.27783 z M 61.333332,120.66666 C 63.821043,118.1 66.156444,116 66.523111,116 c 0.366666,0 -1.368735,2.1 -3.856446,4.66666 -2.48771,2.56667 -4.823111,4.66667 -5.189778,4.66667 -0.366667,0 1.368735,-2.1 3.856445,-4.66667 z M 98.666665,89.403332 C 103.32124,85.245232 116.20682,76.02344 120,74.135748 c 3.88974,-1.935744 -6.13459,6.005818 -16,12.675653 -6.384863,4.316697 -8.312937,5.253716 -5.333335,2.591931 z"
       id="path819"
       inkscape:connector-curvature="0" />
  </g>
</svg>
